# xmcd
#
# Track frame offsets:
#	150
#	12109
#	23305
#	34547
#	45327
#	56897
#	67692
#	78895
#	88647
#	99050
#	110365
#	120760
#	131840
#
# Disc length: 1910 seconds
#
# Revision: 6
# Processed by: cddbd v1.5PL3 Copyright (c) Steve Scherf et al.
# Submitted via: MusicManager 7.0.4.0 
#
DISCID=8207740d
DTITLE=Buck Owens - Buck Owens Sings Harlan Howard
DYEAR=1997
DGENRE=country
TTITLE0=Foolin' Around
TTITLE1=Heartaches For A Dime
TTITLE2=Heartaches By The Numbers
TTITLE3=Let's Agree To Disagree
TTITLE4=Keeper Of The Key
TTITLE5=I Don't Believe I'll Fall In Love Today
TTITLE6=Pick Me Up On Your Way Down
TTITLE7=I'll Catch You When You Fall
TTITLE8=Lyin' Again
TTITLE9=The One You Slip Around With
TTITLE10=Think It Over
TTITLE11=Keys In The Mailbox
TTITLE12=Foolin' Around (Instrumental Version)
EXTD=
EXTT0=
EXTT1=
EXTT2=
EXTT3=
EXTT4=
EXTT5=
EXTT6=
EXTT7=
EXTT8=
EXTT9=
EXTT10=
EXTT11=
EXTT12=
PLAYORDER=
